<?xml version="1.0" standalone="no"?>
<!DOCTYPE svg PUBLIC "-//W3C//DTD SVG 20010904//EN"
 "http://www.w3.org/TR/2001/REC-SVG-20010904/DTD/svg10.dtd">
<svg version="1.0" xmlns="http://www.w3.org/2000/svg"
 width="200.000000pt" height="200.000000pt" viewBox="0 0 200.000000 200.000000"
 preserveAspectRatio="xMidYMid meet">
<metadata>
Created by potrace 1.14, written by Peter Selinger 2001-2017
</metadata>
<g transform="translate(0.000000,200.000000) scale(0.100000,-0.100000)"
fill="#000000" stroke="none">
<path d="M797 1495 c-14 -13 -16 -289 -3 -302 10 -10 387 -12 406 -2 13 6 15
32 15 153 0 80 -4 149 -9 153 -13 14 -396 12 -409 -2z m363 -150 l0 -105 -160
0 -160 0 0 105 0 105 160 0 160 0 0 -105z"/>
<path d="M1003 1398 c0 -7 -3 -34 -7 -60 -6 -40 -5 -48 8 -48 9 0 16 6 17 13
0 6 2 19 4 27 14 67 13 80 -4 80 -10 0 -18 -6 -18 -12z"/>
<path d="M897 1378 c-39 -14 -33 -49 11 -62 18 -5 36 -6 40 -2 9 9 -28 37 -39
30 -5 -3 -9 -3 -9 1 0 3 11 10 25 15 26 10 35 31 13 29 -7 0 -26 -5 -41 -11z"/>
<path d="M1050 1376 c0 -9 7 -16 15 -16 8 0 15 -4 15 -10 0 -5 -7 -10 -15 -10
-8 0 -15 -7 -15 -16 0 -13 6 -15 28 -9 41 10 55 27 40 47 -19 25 -68 35 -68
14z"/>
<path d="M924 1151 c-21 -4 -35 -21 -28 -33 3 -4 49 -8 104 -8 77 0 99 3 103
15 4 8 2 17 -4 21 -11 7 -145 11 -175 5z"/>
</g>
</svg>
